<svg width="39" height="38" viewBox="0 0 39 38" fill="none" xmlns="http://www.w3.org/2000/svg">
<path d="M35.75 19C35.75 13.0289 35.75 10.0433 33.8461 8.18831C31.9425 6.33333 28.8782 6.33333 22.75 6.33333H16.25C10.1217 6.33333 7.05762 6.33333 5.1538 8.18831C3.25 10.0433 3.25 13.0289 3.25 19C3.25 24.9711 3.25 27.9568 5.1538 29.8116C7.05762 31.6667 10.1217 31.6667 16.25 31.6667H22.75C28.8782 31.6667 31.9425 31.6667 33.8461 29.8116C34.9076 28.7774 35.3772 27.3918 35.5851 25.3333" stroke="#ACC9FD" stroke-width="3" stroke-linecap="round"/>
<path d="M16.25 25.3333H9.75" stroke="#ACC9FD" stroke-width="3" stroke-linecap="round"/>
<path d="M22.75 25.3333H20.3125" stroke="#ACC9FD" stroke-width="3" stroke-linecap="round"/>
<path d="M3.25 15.8333H11.375M35.75 15.8333H17.875" stroke="#ACC9FD" stroke-width="3" stroke-linecap="round"/>
</svg>
