<svg width="23" height="26" viewBox="0 0 23 26" fill="none" xmlns="http://www.w3.org/2000/svg">
<g clip-path="url(#clip0_168_149)">
<path fill-rule="evenodd" clip-rule="evenodd" d="M7.47204 9.88079H3.04788C2.39871 9.87545 1.774 10.1282 1.31117 10.5834C0.848338 11.0386 0.585307 11.659 0.579956 12.3082V21.495C0.591968 22.8463 1.69667 23.9322 3.04788 23.9208H7.47204C8.12115 23.9262 8.74593 23.6735 9.20878 23.2183C9.67164 22.7631 9.93465 22.1427 9.93996 21.4934V12.3082C9.93465 11.659 9.67164 11.0386 9.20878 10.5834C8.74593 10.1282 8.12115 9.87545 7.47204 9.88079Z" fill="white"/>
<path fill-rule="evenodd" clip-rule="evenodd" d="M7.47204 0.520931H3.04788C1.72384 0.484208 0.619876 1.52607 0.579956 2.85001V4.43185C0.619876 5.75581 1.72384 6.79767 3.04788 6.76093H7.47204C8.79601 6.79767 9.90002 5.75581 9.93996 4.43185V2.85001C9.90002 1.52607 8.79601 0.484208 7.47204 0.520931Z" fill="white"/>
<path fill-rule="evenodd" clip-rule="evenodd" d="M15.528 14.5611H19.9506C20.6 14.5669 21.2251 14.3143 21.6883 13.8591C22.1514 13.4037 22.4148 12.7832 22.4201 12.1337V2.94838C22.4148 2.29923 22.1517 1.67879 21.6889 1.22357C21.226 0.768343 20.6013 0.515622 19.9521 0.52102H15.528C14.8789 0.515622 14.2541 0.768343 13.7912 1.22357C13.3284 1.67879 13.0654 2.29923 13.0601 2.94838V12.1337C13.0654 12.7828 13.3284 13.4033 13.7912 13.8585C14.2541 14.3137 14.8789 14.5664 15.528 14.5611Z" fill="white"/>
<path fill-rule="evenodd" clip-rule="evenodd" d="M15.528 23.9209H19.9506C21.2752 23.9585 22.3801 22.9164 22.4201 21.5919V20.01C22.3801 18.686 21.2761 17.6443 19.9521 17.6809H15.528C14.204 17.6443 13.1 18.686 13.0601 20.01V21.5903C13.0991 22.9149 14.2034 23.9576 15.528 23.9209Z" fill="white"/>
</g>
<defs>
<clipPath id="clip0_168_149">
<rect width="23" height="25" fill="white" transform="translate(0 0.5)"/>
</clipPath>
</defs>
</svg>
