<svg width="21" height="21" viewBox="0 0 21 21" fill="none" xmlns="http://www.w3.org/2000/svg">
<g clip-path="url(#clip0_167_52)">
<path d="M10.25 6.33334V12.1667M10.25 12.1667L12.75 9.66667M10.25 12.1667L7.75 9.66667" stroke="#010101" stroke-width="2" stroke-linecap="round" stroke-linejoin="round"/>
<path d="M13.5834 14.6667H10.2501H6.91675" stroke="#010101" stroke-width="2" stroke-linecap="round"/>
<path d="M1.91675 10.5C1.91675 6.57162 1.91675 4.60744 3.13714 3.38706C4.35752 2.16666 6.32171 2.16666 10.2501 2.16666C14.1784 2.16666 16.1427 2.16666 17.363 3.38706C18.5834 4.60744 18.5834 6.57162 18.5834 10.5C18.5834 14.4283 18.5834 16.3926 17.363 17.6129C16.1427 18.8333 14.1784 18.8333 10.2501 18.8333C6.32171 18.8333 4.35752 18.8333 3.13714 17.6129C1.91675 16.3926 1.91675 14.4283 1.91675 10.5Z" stroke="#010101" stroke-width="2"/>
</g>
<defs>
<clipPath id="clip0_167_52">
<rect width="20" height="20" fill="white" transform="translate(0.25 0.5)"/>
</clipPath>
</defs>
</svg>
