<svg width="36" height="36" viewBox="0 0 36 36" fill="none" xmlns="http://www.w3.org/2000/svg">
<path d="M4.5 6.9C4.5 6.05992 4.5 5.63988 4.66348 5.31902C4.8073 5.03678 5.03678 4.8073 5.31902 4.66348C5.63988 4.5 6.05992 4.5 6.9 4.5H29.1C29.9401 4.5 30.3602 4.5 30.681 4.66348C30.9633 4.8073 31.1927 5.03678 31.3365 5.31902C31.5 5.63988 31.5 6.05992 31.5 6.9V9.50589C31.5 9.87277 31.5 10.0562 31.4586 10.2288C31.4219 10.3819 31.3613 10.5282 31.2789 10.6624C31.1862 10.8138 31.0565 10.9435 30.7971 11.2029L21.7029 20.2971C21.4436 20.5564 21.3138 20.6862 21.2211 20.8375C21.1387 20.9718 21.0782 21.1181 21.0414 21.2712C21 21.4439 21 21.6273 21 21.994V25.5L15 31.5V21.994C15 21.6273 15 21.4439 14.9586 21.2712C14.9218 21.1181 14.8612 20.9718 14.779 20.8375C14.6862 20.6862 14.5565 20.5564 14.2971 20.2971L5.20295 11.2029C4.94352 10.9435 4.8138 10.8138 4.72104 10.6624C4.6388 10.5282 4.5782 10.3819 4.54145 10.2288C4.5 10.0562 4.5 9.87277 4.5 9.50589V6.9Z" stroke="#CFCFCF" stroke-width="3" stroke-linecap="round" stroke-linejoin="round"/>
</svg>
