<svg width="48" height="48" viewBox="0 0 48 48" fill="none" xmlns="http://www.w3.org/2000/svg">
<path d="M44 24C44 26.6264 43.4826 29.2272 42.4776 31.6536C41.4724 34.0802 39.9994 36.285 38.1422 38.1422C36.285 39.9994 34.0802 41.4724 31.6536 42.4776C29.2272 43.4826 26.6264 44 24 44C21.3736 44 18.7728 43.4826 16.3463 42.4776C13.9198 41.4724 11.715 39.9994 9.85786 38.1422C8.0007 36.285 6.5275 34.0802 5.5224 31.6536C4.51732 29.2272 4 26.6264 4 24C4 21.3736 4.51732 18.7728 5.52242 16.3463C6.5275 13.9198 8.0007 11.715 9.85786 9.85786C11.715 8.0007 13.9198 6.5275 16.3463 5.5224C18.7728 4.51732 21.3736 4 24 4C26.6264 4 29.2272 4.51732 31.6536 5.52242C34.0802 6.5275 36.285 8.0007 38.1422 9.85786C39.9994 11.715 41.4724 13.9198 42.4776 16.3463C43.4826 18.7728 44 21.3736 44 24Z" stroke="#46659E" stroke-width="3.75"/>
<path d="M32 24C32 26.6264 31.793 29.2272 31.391 31.6536C30.989 34.0802 30.3998 36.285 29.6568 38.1422C28.914 39.9994 28.032 41.4724 27.0614 42.4776C26.0908 43.4826 25.0506 44 24 44C22.9494 44 21.9092 43.4826 20.9386 42.4776C19.9679 41.4724 19.086 39.9994 18.3431 38.1422C17.6003 36.285 17.011 34.0802 16.609 31.6536C16.2069 29.2272 16 26.6264 16 24C16 21.3736 16.2069 18.7728 16.609 16.3463C17.011 13.9198 17.6003 11.715 18.3431 9.85786C19.086 8.0007 19.9679 6.5275 20.9386 5.5224C21.9092 4.51732 22.9494 4 24 4C25.0506 4 26.0908 4.51732 27.0614 5.52242C28.032 6.5275 28.914 8.0007 29.6568 9.85786C30.3998 11.715 30.989 13.9198 31.391 16.3463C31.793 18.7728 32 21.3736 32 24Z" stroke="#46659E" stroke-width="3.75"/>
<path d="M4 24H44" stroke="#46659E" stroke-width="3.75" stroke-linecap="round"/>
</svg>
