<svg width="39" height="38" viewBox="0 0 39 38" fill="none" xmlns="http://www.w3.org/2000/svg">
<path d="M25.4811 23.0959C31.1526 23.0959 35.75 18.6346 35.75 13.1313C35.75 7.62798 31.1526 3.16667 25.4811 3.16667C19.8099 3.16667 15.2124 7.62798 15.2124 13.1313C15.2124 15.6804 16.4065 17.5343 16.4065 17.5343L3.98842 29.5844C3.43119 30.1251 2.65107 31.531 3.98842 32.8287L5.42126 34.2192C5.97846 34.6826 7.37943 35.3315 8.52573 34.2192L10.1974 32.597C11.869 34.2192 13.7795 33.2923 14.4959 32.3652C15.69 30.7431 14.2571 29.121 14.2571 29.121L14.7348 28.6575C17.0272 30.8821 19.0333 29.5844 19.7498 28.6575C20.9438 27.0354 19.7498 25.4133 19.7498 25.4133C19.2722 24.4863 18.317 24.4863 19.5109 23.3277L20.9438 21.9372C22.0901 22.8641 24.4463 23.0959 25.4811 23.0959Z" stroke="#ECBE3F" stroke-width="3" stroke-linejoin="round"/>
<path d="M29.0636 13.1314C29.0636 15.0512 27.4598 16.6074 25.4816 16.6074C23.5031 16.6074 21.8994 15.0512 21.8994 13.1314C21.8994 11.2117 23.5031 9.6554 25.4816 9.6554C27.4598 9.6554 29.0636 11.2117 29.0636 13.1314Z" stroke="#ECBE3F" stroke-width="3"/>
</svg>
