<svg width="33" height="34" viewBox="0 0 33 34" fill="none" xmlns="http://www.w3.org/2000/svg">
<path d="M9.625 14.2896C10.2732 14.25 11.0723 14.25 12.1 14.25H20.9C21.9277 14.25 22.7268 14.25 23.375 14.2896M9.625 14.2896C8.81606 14.339 8.24215 14.4501 7.75229 14.6996C6.97612 15.0951 6.34508 15.7261 5.9496 16.5022C5.5 17.3847 5.5 18.5397 5.5 20.85V22.775C5.5 25.0853 5.5 26.2403 5.9496 27.1227C6.34508 27.8989 6.97612 28.5299 7.75229 28.9254C8.63467 29.375 9.78978 29.375 12.1 29.375H20.9C23.2103 29.375 24.3653 29.375 25.2477 28.9254C26.0239 28.5299 26.6549 27.8989 27.0504 27.1227C27.5 26.2403 27.5 25.0853 27.5 22.775V20.85C27.5 18.5397 27.5 17.3847 27.0504 16.5022C26.6549 15.7261 26.0239 15.0951 25.2477 14.6996C24.7578 14.4501 24.1839 14.339 23.375 14.2896M9.625 14.2896V11.5C9.625 7.70305 12.703 4.625 16.5 4.625C20.2969 4.625 23.375 7.70305 23.375 11.5V14.2896" stroke="#A1FD84" stroke-width="3" stroke-linecap="round" stroke-linejoin="round"/>
</svg>
