<svg width="60" height="60" viewBox="0 0 60 60" fill="none" xmlns="http://www.w3.org/2000/svg">
<path fill-rule="evenodd" clip-rule="evenodd" d="M47.5 52.5C47.5 53.8807 46.3807 55 45 55H35H25H15C13.6193 55 12.5 53.8807 12.5 52.5V46.875C12.5 44.4588 10.5412 42.5 8.125 42.5C6.3991 42.5 5 41.101 5 39.375V27.5C5 13.6929 16.1929 2.5 30 2.5C43.807 2.5 55 13.6929 55 27.5V39.375C55 41.101 53.601 42.5 51.875 42.5C49.4588 42.5 47.5 44.4588 47.5 46.875V52.5ZM42.5 50V46.875C42.5 42.3395 45.7207 38.5562 50 37.6875V27.5C50 16.4543 41.0457 7.5 30 7.5C18.9543 7.5 10 16.4543 10 27.5V37.6875C14.2792 38.5562 17.5 42.3395 17.5 46.875V50H22.5V45C22.5 43.6193 23.6193 42.5 25 42.5C26.3808 42.5 27.5 43.6193 27.5 45V50H32.5V45C32.5 43.6193 33.6192 42.5 35 42.5C36.3808 42.5 37.5 43.6193 37.5 45V50H42.5ZM27.5 31.25C27.5 34.7018 21.5807 37.5 18.1312 37.5C14.9617 37.5 14.9801 35.1375 15.004 32.0765C15.0061 31.8062 15.0083 31.5303 15.0083 31.25C15.0083 27.7983 17.8047 25 21.2542 25C24.7036 25 27.5 27.7983 27.5 31.25ZM44.996 32.0765C44.9937 31.806 44.9918 31.5303 44.9918 31.25C44.9918 27.7983 42.1952 25 38.7458 25C35.2962 25 32.5 27.7983 32.5 31.25C32.5 34.7018 38.4193 37.5 41.8687 37.5C45.0382 37.5 45.0197 35.1375 44.996 32.0765Z" fill="#004B38"/>
</svg>
